<svg width="32" height="32" viewBox="0 0 32 32" fill="none" xmlns="http://www.w3.org/2000/svg">
<path d="M30.0295 20.1246C29.7297 20.1246 29.4891 20.0378 29.3076 19.8642C29.1261 19.6828 29.0354 19.4619 29.0354 19.2015C29.0354 18.9411 29.1261 18.7242 29.3076 18.5506C29.4891 18.3691 29.7297 18.2784 30.0295 18.2784C30.3136 18.2784 30.5463 18.3691 30.7278 18.5506C30.9092 18.7242 31 18.9411 31 19.2015C31 19.4619 30.9092 19.6828 30.7278 19.8642C30.5463 20.0378 30.3136 20.1246 30.0295 20.1246Z" fill="#BC8A00"/>
<path d="M18.3671 20.0654V11H18.3789L23.2193 17.8642L22.4856 17.6985L27.3142 11H27.3379V20.0654H25.6218V14.87L25.7283 15.7576L22.7815 19.9471H22.7578L19.7281 15.7576L20.0239 14.941V20.0654H18.3671Z" fill="#F5F5F5"/>
<path d="M12.8311 11.3551C13.3755 11.3551 13.8607 11.4261 14.2868 11.5681C14.7129 11.7023 15.0679 11.8995 15.3519 12.1599C15.6439 12.4123 15.8648 12.72 16.0147 13.083C16.1646 13.438 16.2395 13.8404 16.2395 14.2901C16.2395 14.6452 16.1843 15.0002 16.0739 15.3553C15.9713 15.7103 15.7977 16.0338 15.5531 16.3257C15.3164 16.6176 15.0008 16.8543 14.6063 17.0358C14.2118 17.2094 13.7227 17.2962 13.1388 17.2962H11.908V20.0655H10.192V11.3551H12.8311ZM13.127 15.6393C13.3874 15.6393 13.6043 15.5959 13.7779 15.5091C13.9515 15.4223 14.0856 15.3119 14.1803 15.1777C14.2829 15.0436 14.3539 14.9055 14.3933 14.7635C14.4407 14.6136 14.4643 14.4755 14.4643 14.3493C14.4643 14.2546 14.4485 14.1363 14.417 13.9943C14.3933 13.8443 14.3381 13.6944 14.2513 13.5445C14.1645 13.3946 14.0304 13.2684 13.8489 13.1658C13.6753 13.0633 13.4386 13.012 13.1388 13.012H11.908V15.6393H13.127ZM14.7365 16.7044L16.8905 20.0655H14.8904L12.6891 16.7518L14.7365 16.7044Z" fill="#F5F5F5"/>
<path d="M1 20.0655V11.3551H3.60366C4.47943 11.3551 5.22503 11.4853 5.84044 11.7457C6.45585 12.006 6.94896 12.3532 7.31979 12.7871C7.6985 13.2211 7.97465 13.7063 8.14822 14.2428C8.3218 14.7793 8.40859 15.3197 8.40859 15.8641C8.40859 16.5111 8.29024 17.095 8.05355 17.6157C7.82474 18.1285 7.50914 18.5704 7.10676 18.9412C6.70438 19.3041 6.23888 19.5842 5.71025 19.7815C5.18163 19.9708 4.62145 20.0655 4.02971 20.0655H1ZM2.71605 18.4086H3.73384C4.16778 18.4086 4.56228 18.3534 4.91732 18.2429C5.27237 18.1246 5.57613 17.955 5.8286 17.734C6.08897 17.5131 6.28621 17.237 6.42034 16.9056C6.56236 16.5663 6.63337 16.1797 6.63337 15.7458C6.63337 15.1777 6.53869 14.7162 6.34933 14.3611C6.16787 13.9982 5.93906 13.7181 5.66291 13.5209C5.39466 13.3236 5.11851 13.1895 4.83448 13.1185C4.55044 13.0396 4.3098 13.0001 4.11255 13.0001H2.71605V18.4086Z" fill="#F5F5F5"/>
</svg>
