<svg width="22" height="20" viewBox="0 0 22 20" fill="none" xmlns="http://www.w3.org/2000/svg">
<path d="M11.8712 13.67C12.0139 13.31 11.9222 12.9 11.6368 12.62L9.50715 10.56L9.53772 10.53C11.3108 8.59 12.5743 6.36 13.3182 4H15.295C15.8453 4 16.3038 3.55 16.3038 3.01V2.99C16.3038 2.45 15.8453 2 15.295 2H9.17089V1C9.17089 0.45 8.71234 0 8.1519 0C7.59146 0 7.13291 0.45 7.13291 1V2H1.0088C0.458544 2 0 2.45 0 2.99C0 3.54 0.458544 3.98 1.0088 3.98H11.3821C10.6994 5.92 9.61924 7.75 8.1519 9.35C7.32652 8.46 6.63361 7.49 6.05279 6.47C5.88975 6.18 5.59424 6 5.25798 6C4.55487 6 4.10652 6.75 4.45298 7.35C5.09494 8.48 5.87956 9.56 6.79665 10.56L2.34367 14.87C1.93608 15.26 1.93608 15.9 2.34367 16.29C2.74108 16.68 3.38304 16.68 3.79063 16.29L8.1519 12L10.2103 14.02C10.7299 14.53 11.6165 14.34 11.8712 13.67ZM16.8133 8C16.2019 8 15.6517 8.37 15.4377 8.94L11.698 18.74C11.4534 19.35 11.9222 20 12.5845 20C12.9819 20 13.3385 19.76 13.4812 19.39L14.3881 17H19.2283L20.1454 19.39C20.288 19.75 20.6447 20 21.0421 20C21.7044 20 22.1732 19.35 21.9388 18.74L18.1991 8.94C17.9749 8.37 17.4247 8 16.8133 8ZM15.1625 15L16.8133 10.67L18.4641 15H15.1625Z" fill="url(#paint0_linear_181_138)"/>
<defs>
<linearGradient id="paint0_linear_181_138" x1="11" y1="0" x2="11" y2="20" gradientUnits="userSpaceOnUse">
<stop stop-color="#FFBB00"/>
<stop offset="1" stop-color="#895E00"/>
</linearGradient>
</defs>
</svg>
