<svg width="23" height="16" viewBox="0 0 23 16" fill="none" xmlns="http://www.w3.org/2000/svg">
<path d="M17.1678 0C15.1389 0 12.9539 0.3845 11.4452 1.44187C9.93652 0.3845 7.75152 0 5.7226 0C4.21391 0 2.61159 0.211475 1.26938 0.759387C0.509832 1.0766 0 1.75909 0 2.5377V13.3806C0 14.6302 1.26938 15.553 2.58037 15.2454C3.60004 15.0051 4.68213 14.8994 5.7226 14.8994C7.34574 14.8994 9.07292 15.1493 10.4672 15.7837C11.0914 16.0721 11.799 16.0721 12.4128 15.7837C13.8071 15.1397 15.5343 14.8994 17.1574 14.8994C18.1979 14.8994 19.28 15.0051 20.2996 15.2454C21.6106 15.5626 22.88 14.6398 22.88 13.3806V2.5377C22.88 1.75909 22.3702 1.0766 21.6106 0.759387C20.2788 0.211475 18.6765 0 17.1678 0ZM20.8095 12.2367C20.8095 12.8423 20.206 13.2845 19.5609 13.1787C18.7805 13.0442 17.969 12.9865 17.1678 12.9865C15.399 12.9865 12.8498 13.6113 11.4452 14.4284V3.36437C12.8498 2.54731 15.399 1.9225 17.1678 1.9225C18.125 1.9225 19.0719 2.00901 19.9771 2.19165C20.4557 2.28777 20.8095 2.68189 20.8095 3.13367V12.2367Z" fill="url(#paint0_linear_201_59)"/>
<defs>
<linearGradient id="paint0_linear_201_59" x1="11.44" y1="0" x2="11.44" y2="16" gradientUnits="userSpaceOnUse">
<stop stop-color="#FFBB00"/>
<stop offset="1" stop-color="#895E00"/>
</linearGradient>
</defs>
</svg>
