<svg width="122" height="37" viewBox="0 0 122 37" fill="none" xmlns="http://www.w3.org/2000/svg">
<path d="M117.739 37.008C116.523 37.008 115.547 36.656 114.811 35.952C114.075 35.216 113.707 34.32 113.707 33.264C113.707 32.208 114.075 31.328 114.811 30.624C115.547 29.888 116.523 29.52 117.739 29.52C118.891 29.52 119.835 29.888 120.571 30.624C121.307 31.328 121.675 32.208 121.675 33.264C121.675 34.32 121.307 35.216 120.571 35.952C119.835 36.656 118.891 37.008 117.739 37.008Z" fill="#BC8A00"/>
<path d="M70.4375 36.768V0H70.4855L90.1175 27.84L87.1415 27.168L106.726 0H106.822V36.768H99.8615V15.696L100.294 19.296L88.3415 36.288H88.2455L75.9575 19.296L77.1575 15.984V36.768H70.4375Z" fill="#F5F5F5"/>
<path d="M47.9852 1.44C50.1932 1.44 52.1612 1.728 53.8892 2.304C55.6172 2.848 57.0572 3.648 58.2092 4.704C59.3932 5.728 60.2893 6.976 60.8973 8.448C61.5053 9.888 61.8092 11.52 61.8092 13.344C61.8092 14.784 61.5852 16.224 61.1372 17.664C60.7213 19.104 60.0173 20.416 59.0252 21.6C58.0652 22.784 56.7852 23.744 55.1852 24.48C53.5852 25.184 51.6012 25.536 49.2332 25.536H44.2412V36.768H37.2812V1.44H47.9852ZM49.1852 18.816C50.2412 18.816 51.1212 18.64 51.8252 18.288C52.5292 17.936 53.0732 17.488 53.4572 16.944C53.8732 16.4 54.1613 15.84 54.3213 15.264C54.5133 14.656 54.6092 14.096 54.6092 13.584C54.6092 13.2 54.5452 12.72 54.4172 12.144C54.3212 11.536 54.0973 10.928 53.7453 10.32C53.3932 9.712 52.8493 9.2 52.1133 8.784C51.4093 8.368 50.4493 8.16 49.2332 8.16H44.2412V18.816H49.1852ZM55.7132 23.136L64.4492 36.768H56.3372L47.4092 23.328L55.7132 23.136Z" fill="#F5F5F5"/>
<path d="M0 36.768V1.44H10.56C14.112 1.44 17.136 1.968 19.632 3.024C22.128 4.08 24.128 5.488 25.632 7.248C27.168 9.00801 28.288 10.976 28.992 13.152C29.696 15.328 30.048 17.52 30.048 19.728C30.048 22.352 29.568 24.72 28.608 26.832C27.68 28.912 26.4 30.704 24.768 32.208C23.136 33.68 21.248 34.816 19.104 35.616C16.96 36.384 14.688 36.768 12.288 36.768H0ZM6.96 30.048H11.088C12.848 30.048 14.448 29.824 15.888 29.376C17.328 28.896 18.56 28.208 19.584 27.312C20.64 26.416 21.44 25.296 21.984 23.952C22.56 22.576 22.848 21.008 22.848 19.248C22.848 16.944 22.464 15.072 21.696 13.632C20.96 12.16 20.032 11.024 18.912 10.224C17.824 9.424 16.704 8.88 15.552 8.592C14.4 8.27201 13.424 8.11201 12.624 8.11201H6.96V30.048Z" fill="#F5F5F5"/>
</svg>
